#!OML:ASF F:\VICON\USERDATA\INSTALL\rory3\rory3.ASF
:FULLY-SPECIFIED
:DEGREES
169
root 0.995079 16.8506 -12.536 10.8956 0.69867 -0.0133268
lowerback -2.80845 0.178188 -1.95647
upperback -3.00942 0.273715 0.509016
thorax -1.52475 0.179394 1.62238
lowerneck -15.2553 -0.703851 -1.74771
upperneck 38.3669 0.165197 -1.5247
head 16.3009 -0.398691 -0.325343
rclavicle 2.42579e-015 5.91384e-015
rhumerus -43.5436 -10.8751 -73.7675
rradius 29.3534
rwrist -12.1689
rhand -2.0554 11.9272
rfingers 7.12502
rthumb 23.6203 -16.642
lclavicle 2.42579e-015 5.91384e-015
lhumerus -35.1534 19.1823 66.0261
lradius 49.1663
lwrist -1.41292
lhand -1.96078 16.9845
lfingers 7.12502
lthumb 23.711 45.5419
rfemur -35.9143 9.11064 17.9862
rtibia 28.0801
rfoot -16.8169 -22.4408
rtoes 0.284833
lfemur -9.08324 -9.83447 -24.8182
ltibia 19.7839
lfoot -24.2478 21.2106
ltoes -10.3669
170
root 0.991461 16.8581 -12.3969 10.9482 0.605851 0.0865491
lowerback -2.92758 0.272213 -1.99099
upperback -2.98796 0.401762 0.452162
thorax -1.44135 0.242471 1.58592
lowerneck -15.0033 -0.76671 -1.71324
upperneck 38.2955 0.0278247 -1.469
head 16.2005 -0.440349 -0.329217
rclavicle 5.53491e-015 -5.26779e-015
rhumerus -43.7015 -11.2058 -73.5889
rradius 29.2025
rwrist -12.33
rhand -2.17573 11.9298
rfingers 7.12502
rthumb 23.5048 -16.6542
lclavicle 5.53491e-015 -5.26779e-015
lhumerus -34.8825 18.7499 65.7942
lradius 49.2621
lwrist -1.75122
lhand -1.60807 16.4812
lfingers 7.12502
lthumb 24.0493 44.9944
rfemur -36.2071 10.2279 17.1182
rtibia 26.3164
rfoot -17.842 -23.0725
rtoes 2.3368
lfemur -7.78083 -9.97145 -25.0141
ltibia 18.3153
lfoot -24.0787 21.4671
ltoes -10.2164
171
root 0.983516 16.8642 -12.2525 10.9182 0.825602 0.234476
lowerback -2.91705 0.193695 -2.06291
upperback -2.92097 0.298378 0.435393
thorax -1.37435 0.190511 1.60756
lowerneck -15.1269 -0.76201 -1.79989
upperneck 38.4309 0.0333099 -1.37572
head 16.302 -0.438801 -0.273975
rclavicle 6.36422e-015 -2.43511e-015
rhumerus -43.667 -11.2868 -73.5681
rradius 29.2123
rwrist -12.3293
rhand -2.25639 11.424
rfingers 7.12502
rthumb 23.4275 -17.1699
lclavicle 6.36422e-015 -2.43511e-015
lhumerus -34.6008 18.5671 65.5801
lradius 49.239
lwrist -2.1979
lhand -1.63218 16.3233
lfingers 7.12502
lthumb 24.0261 44.8395
rfemur -36.4401 11.3838 16.1333
rtibia 24.7899
rfoot -18.5082 -24.2607
rtoes 1.89802
lfemur -6.3874 -10.1857 -25.1976
ltibia 16.9114
lfoot -23.932 21.4619
ltoes -9.97895
172
root 0.972813 16.8618 -12.1177 10.9947 0.94989 0.358575
lowerback -2.87324 0.120034 -2.26177
upperback -2.90532 0.203492 0.532492
thorax -1.38035 0.147442 1.8172
lowerneck -15.2123 -0.719379 -1.80178
upperneck 38.5156 0.168965 -1.53871
head 16.3688 -0.406569 -0.322183
rclavicle -3.14949e-015 1.18277e-014
rhumerus -43.7046 -11.0468 -73.5397
rradius 29.5122
rwrist -12.3343
rhand -2.33877 11.0787
rfingers 7.12502
rthumb 23.3484 -17.5252
lclavicle -3.14949e-015 1.18277e-014
lhumerus -34.3577 18.4587 65.5653
lradius 49.2341
lwrist -2.1859
lhand -1.6909 16.9854
lfingers 7.12502
lthumb 23.9698 45.509
rfemur -36.9063 13.0427 14.9074
rtibia 23.4021
rfoot -19.3456 -25.7838
rtoes 2.43109
lfemur -5.23196 -10.212 -25.3207
ltibia 15.5544
lfoot -23.5301 21.4611
ltoes -10.0105
173
root 0.963778 16.8574 -11.9824 11.0277 0.835295 0.469517
lowerback -2.90242 0.138853 -2.41988
upperback -2.82939 0.233027 0.581029
thorax -1.28868 0.163498 1.95654
lowerneck -15.3432 -0.649636 -1.74288
upperneck 38.5953 0.309159 -1.65578
head 16.4442 -0.357093 -0.36042
rclavicle -2.43511e-015 5.1684e-015
rhumerus -43.7432 -10.8165 -73.5776
rradius 29.7263
rwrist -12.5529
rhand -2.45136 11.1325
rfingers 7.12502
rthumb 23.2404 -17.4851
lclavicle -2.43511e-015 5.1684e-015
lhumerus -34.101 18.3918 65.5028
lradius 49.2754
lwrist -2.48786
lhand -1.57736 17.244
lfingers 7.12502
lthumb 24.0787 45.7533
rfemur -37.4997 15.1708 13.4379
rtibia 22.2764
rfoot -20.8214 -27.2251
rtoes 4.30516
lfemur -4.01506 -10.1514 -25.5068
ltibia 14.1868
lfoot -23.1055 21.7043
ltoes -10.7587
174
root 0.957046 16.8546 -11.8368 11.0607 0.768758 0.568723
lowerback -2.94371 0.18386 -2.41229
upperback -2.89326 0.292962 0.52365
thorax -1.33399 0.194072 1.89435
lowerneck -15.2312 -0.628379 -1.70884
upperneck 38.7553 0.297522 -1.57218
head 16.4999 -0.345285 -0.332818
rclavicle 5.39203e-015 1.78906e-015
rhumerus -44.0352 -10.8191 -73.5301
rradius 29.6624
rwrist -12.4866
rhand -2.37177 11.3304
rfingers 7.12502
rthumb 23.3168 -17.2776
lclavicle 5.39203e-015 1.78906e-015
lhumerus -34.1242 18.1999 65.1986
lradius 49.2793
lwrist -2.87023
lhand -1.4503 17.24
lfingers 7.12502
lthumb 24.2005 45.7331
rfemur -38.1143 17.1656 11.9529
rtibia 21.3752
rfoot -22.2337 -28.6081
rtoes 6.04919
lfemur -2.75694 -10.0217 -25.6844
ltibia 12.8948
lfoot -22.7741 21.6364
ltoes -10.7875
175
root 0.948908 16.8442 -11.6945 11.1623 0.707824 0.862744
lowerback -3.05678 0.201498 -2.63846
upperback -2.90754 0.322994 0.46175
thorax -1.28846 0.211934 1.95873
lowerneck -15.2234 -0.684582 -1.80842
upperneck 38.8636 0.228639 -1.52545
head 16.5557 -0.382405 -0.307902
rclavicle -1.59028e-015 5.46658e-015
rhumerus -44.1339 -10.9706 -73.3433
rradius 29.5881
rwrist -12.2581
rhand -2.11846 11.4184
rfingers 7.12502
rthumb 23.5598 -17.1586
lclavicle -1.59028e-015 5.46658e-015
lhumerus -34.0527 18.1564 64.9846
lradius 49.1327
lwrist -2.99034
lhand -1.43352 17.4348
lfingers 7.12502
lthumb 24.2166 45.9257
rfemur -38.9211 18.9253 10.2669
rtibia 20.7371
rfoot -23.8705 -29.7308
rtoes 7.73687
lfemur -1.59375 -9.90134 -26.0443
ltibia 11.6103
lfoot -22.5175 21.5551
ltoes -10.4018
176
root 0.937794 16.8328 -11.5544 11.1746 0.690046 1.09337
lowerback -3.14911 0.2174 -2.82296
upperback -2.80566 0.351464 0.427531
thorax -1.13492 0.225552 2.02847
lowerneck -15.2703 -0.709415 -1.8416
upperneck 38.8922 0.205212 -1.52655
head 16.583 -0.396916 -0.307074
rclavicle 4.82053e-015 -1.03368e-014
rhumerus -44.1334 -10.8236 -73.4387
rradius 29.6626
rwrist -12.2886
rhand -2.34508 11.6073
rfingers 7.12502
rthumb 23.3424 -16.9975
lclavicle 4.82053e-015 -1.03368e-014
lhumerus -33.764 18.2106 64.8123
lradius 48.8207
lwrist -3.0272
lhand -1.399 16.9038
lfingers 7.12502
lthumb 24.2497 45.3903
rfemur -39.6425 20.5263 8.73862
rtibia 20.2535
rfoot -24.9706 -30.9017
rtoes 7.69396
lfemur -0.438807 -9.70703 -26.2946
ltibia 10.3919
lfoot -22.0563 21.48
ltoes -10.5859
177
root 0.922482 16.8228 -11.4096 11.0943 0.651246 1.15351
lowerback -3.16744 0.278067 -2.87082
upperback -2.65807 0.435716 0.417279
thorax -0.977986 0.264299 2.04721
lowerneck -15.4357 -0.748394 -1.88306
upperneck 38.9672 0.129681 -1.43323
head 16.6644 -0.421327 -0.273394
rclavicle -1.37907e-015 -6.36111e-015
rhumerus -44.1106 -10.6218 -73.5786
rradius 29.6017
rwrist -12.1929
rhand -2.57564 11.8452
rfingers 7.12502
rthumb 23.1212 -16.7874
lclavicle -1.37907e-015 -6.36111e-015
lhumerus -33.4065 18.1388 64.6838
lradius 48.4857
lwrist -3.22052
lhand -1.58041 16.0373
lfingers 7.12502
lthumb 24.0758 44.5469
rfemur -39.9916 21.6446 7.87897
rtibia 19.9483
rfoot -26.0916 -31.1763
rtoes 8.41787
lfemur 0.839372 -9.62635 -26.3791
ltibia 9.18858
lfoot -21.5602 21.6138
ltoes -11.3263
178
root 0.906337 16.8103 -11.2631 10.9735 0.598661 1.18963
lowerback -3.11063 0.374286 -2.87549
upperback -2.50268 0.56432 0.410151
thorax -0.857253 0.325028 2.04557
lowerneck -15.7887 -0.835932 -1.9822
upperneck 39.0741 0.000199184 -1.3243
head 16.8115 -0.474826 -0.233624
rclavicle -2.39784e-015 3.57812e-015
rhumerus -44.1202 -10.7264 -73.4789
rradius 29.608
rwrist -11.6487
rhand -2.43357 11.8008
rfingers 7.12502
rthumb 23.2575 -16.8147
lclavicle -2.39784e-015 3.57812e-015
lhumerus -33.0079 18.0567 64.6748
lradius 48.3349
lwrist -3.40335
lhand -1.79768 16.4662
lfingers 7.12502
lthumb 23.8674 45.0032
rfemur -40.4352 22.7304 7.07513
rtibia 19.7363
rfoot -26.463 -31.9176
rtoes 8.28478
lfemur 2.12142 -9.52292 -26.4367
ltibia 8.11905
lfoot -21.004 21.7484
ltoes -12.399
179
root 0.895516 16.7892 -11.1109 10.8336 0.585263 1.37253
lowerback -3.00416 0.404468 -2.9587
upperback -2.44261 0.603688 0.389436
thorax -0.858118 0.344964 2.07117
lowerneck -15.8218 -0.858847 -2.0732
upperneck 39.0754 -0.0227637 -1.27089
head 16.8212 -0.489694 -0.197715
rclavicle -1.2014e-014 -2.98177e-015
rhumerus -44.1254 -10.6397 -73.3752
rradius 29.489
rwrist -11.2668
rhand -2.28369 11.587
rfingers 7.12502
rthumb 23.4013 -17.0102
lclavicle -1.2014e-014 -2.98177e-015
lhumerus -32.8122 18.1493 64.5886
lradius 48.0081
lwrist -3.69273
lhand -1.93412 17.0381
lfingers 7.12502
lthumb 23.7366 45.5922
rfemur -40.6578 23.1384 6.49743
rtibia 19.6027
rfoot -26.1369 -32.1833
rtoes 8.33472
lfemur 3.35225 -9.48134 -26.6885
ltibia 7.28734
lfoot -20.6854 21.7199
ltoes -12.5277
180
root 0.889753 16.7649 -10.9542 10.6506 0.70359 1.62421
lowerback -2.81071 0.355724 -3.00375
upperback -2.48812 0.532465 0.346212
thorax -1.00907 0.312439 2.04875
lowerneck -15.5477 -0.797651 -2.13285
upperneck 39.1043 0.0881534 -1.27836
head 16.7676 -0.453051 -0.168629
rclavicle -1.80521e-014 -9.93923e-016
rhumerus -44.1858 -10.6001 -73.2373
rradius 28.8772
rwrist -10.7464
rhand -2.47908 11.6615
rfingers 7.12502
rthumb 23.2138 -16.9595
lclavicle -1.80521e-014 -9.93923e-016
lhumerus -33.0642 18.042 64.4287
lradius 47.9843
lwrist -3.86689
lhand -2.1758 17.4309
lfingers 7.12502
lthumb 23.5048 46.0149
rfemur -40.4874 23.0565 6.19293
rtibia 19.4121
rfoot -25.1997 -31.7581
rtoes 8.44636
lfemur 4.33487 -9.57159 -27.0505
ltibia 7.00352
lfoot -20.6204 21.7108
ltoes -13.0393
181
root 0.876873 16.7344 -10.8007 10.4584 0.682187 1.84626
lowerback -2.63518 0.350519 -3.13671
upperback -2.4757 0.521994 0.330204
thorax -1.09534 0.310158 2.10538
lowerneck -15.4523 -0.747524 -2.15137
upperneck 39.2767 0.21573 -1.38142
head 16.8373 -0.418813 -0.188988
rclavicle 4.00054e-015 -9.93923e-016
rhumerus -44.0297 -10.8148 -72.9331
rradius 27.9504
rwrist -10.038
rhand -2.53881 12.0736
rfingers 7.12502
rthumb 23.1565 -16.5545
lclavicle 4.00054e-015 -9.93923e-016
lhumerus -33.2574 17.9329 64.2896
lradius 47.8776
lwrist -3.98136
lhand -2.55662 17.5696
lfingers 7.12502
lthumb 23.1394 46.1999
rfemur -40.2925 22.8047 6.14772
rtibia 19.3398
rfoot -24.0623 -30.8318
rtoes 8.83087
lfemur 5.16087 -9.51689 -27.3809
ltibia 6.9706
lfoot -20.4586 21.8043
ltoes -14.2138
182
root 0.854305 16.7063 -10.6519 10.3003 0.587697 1.71217
lowerback -2.63998 0.423753 -3.04958
upperback -2.2923 0.621404 0.414772
thorax -0.90989 0.354131 2.14596
lowerneck -15.5707 -0.775661 -2.1077
upperneck 39.2972 0.211789 -1.50111
head 16.8793 -0.430779 -0.251736
rclavicle -7.33018e-015 9.54166e-015
rhumerus -43.6953 -10.9239 -72.888
rradius 27.5949
rwrist -9.65441
rhand -2.55969 12.0162
rfingers 7.12502
rthumb 23.1365 -16.6145
lclavicle -7.33018e-015 9.54166e-015
lhumerus -33.161 17.9923 64.224
lradius 47.6686
lwrist -3.96852
lhand -2.78542 17.0213
lfingers 7.12502
lthumb 22.9199 45.679
rfemur -40.0699 22.4216 6.73252
rtibia 19.3487
rfoot -22.4309 -30.1251
rtoes 7.44018
lfemur 5.72727 -9.33591 -27.2616
ltibia 7.25209
lfoot -20.162 21.9363
ltoes -16.336
